<?xml version="1.0" encoding="iso-8859-1"?>
<!-- Generator: Adobe Illustrator 19.0.0, SVG Export Plug-In . SVG Version: 6.00 Build 0)  -->
<svg version="1.1" id="Layer_1" xmlns="http://www.w3.org/2000/svg" xmlns:xlink="http://www.w3.org/1999/xlink" x="0px" y="0px"
	 viewBox="0 0 508 508" style="enable-background:new 0 0 508 508;" xml:space="preserve">
<g>
	<g>
		<path d="M335.76,451.364c-1.868-0.248-3.736-0.376-5.54-0.376c-12.656,0-20.128,6.128-22.752,8.764
			c-1.032,1.032-3.148,2.704-5.196,4.312c-6.812,5.344-10.228,8.032-8.916,11.824c0.248,0.728,1.34,3.088,4.844,3.088
			c0.936,0,2.056-0.156,3.504-0.488c0.412-0.096,40.592-12.052,40.136-21.912C341.78,455.248,341.064,452.072,335.76,451.364z"/>
	</g>
</g>
<g>
	<g>
		<path fill="white" d="M254,0C113.944,0,0,113.948,0,254c0,140.056,113.944,254,254,254c140.06,0,254-113.944,254-254
			C508,113.948,394.06,0,254,0z M418.748,205.968c-4.956,0.88-13.368-8.008-21.096-11.916c-7.728-3.908-6.888,1.38-19.34-0.976
			c-12.444-2.36-7.828-20.808,0.8-22.832c5.988-1.4,9.496,1.584,14.664,8.028c4.248,5.284,11.468,2.956,19.884,4.028
			C429.308,184.272,423.716,205.096,418.748,205.968z M294.496,208.788c0.008-11.2-6.456-20.192-53.96-20.192
			c-6.864,0-11.5-1.368-9.9-5.4c1.62-4.076,8.292-2.16,17.836-4.048c9.548-1.892,6.864-7.856,6.78-11.452
			c-0.132-5.724,1.124-11.124,14.132-6.172c8.064,3.072,7.6-4.52,12.72-6.748c8.68-3.784,18.876,6.136,24.112,13.068
			c5.232,6.932,9.936,24.772,14.272,26.332c2.5,0.896,7.224-1.268,10.376-6.268c2.904-4.608-19.496-27.556-14.58-31.336
			c3.36-2.584,11.86-0.54,18.812,20.356c0.984,2.964,2.012,11.548,2.012,25.228c0,9.928,8.384,11.008,12.164,8.784
			c3.936-2.32,0.096-17.908,8.208-18.072c6.48-0.132,4.048,10.284,4.048,17.668c0,11.156,13.144,13.56,18.956,13.56
			c15.192,0,17.544,25.428-2.756,25.428c-10.2,0-21.892-20.404-38.8-20.404c-5.984,0-5.124,4.896-10.86,9.316
			c-5.496,4.236-11.64-4.264-10.292-12.064C319.152,218.464,294.48,222.416,294.496,208.788z M254,492.128
			C122.696,492.128,15.872,385.304,15.872,254c0-33.004,6.76-64.456,18.948-93.056c1.012-1.036,2.044-1.848,3.048-2.368
			c4.404-2.26,6.088-6.372,7.716-10.348c1.288-3.14,2.62-6.388,5.368-9.672c3.132-3.74,5.416-7,7.252-9.62
			c1.628-2.316,3.308-4.712,4.18-5.24c1.392-0.832,2.992-2.448,5.7-5.24c3.364-3.464,8.444-8.7,11.692-9.888
			c0.916-0.336,1.456-0.492,1.744-0.564c1.364,0.6,3.384,0.924,7.104,0.18c7.72-1.544,13.664-3.908,17.572-10.412l0.12-0.2
			c0.724,0.236,1.452,0.416,2.112,0.584c0.684,0.172,1.724,0.436,1.992,0.572c0.96,0.636,2.092,0.968,3.284,0.968
			c6.388,0,13.612-10.252,15.672-13.392c1.656-2.524,3.22-4.904,1.86-7.416c-0.072-0.128-0.148-0.252-0.232-0.368
			c3.824-3.288,7.888-9.792,7.624-13.628c-0.14-2.036,0.648-6.464,1.512-7.588c0.864-1.124,2.592-2.932,4.42-4.848
			c1.656-1.736,3.484-3.648,5.208-5.596c0.76-0.864,2.792-3.16,1.576-5.856c-0.24-0.532-0.604-0.964-1.02-1.344
			C181.692,24.428,216.864,15.872,254,15.872c57.808,0,110.864,20.724,152.148,55.108c-0.656,0.208-1.324,0.396-1.928,0.74
			c-2.404,1.376-3.136,3.136-3.336,4.372c-0.088,0.572-0.088,1.096-0.016,1.596c-4.132-1.176-11.312-4.884-16.864-7.748
			c-9.412-4.852-19.132-9.868-27.232-11.456c-12.004-2.348-24.424,1.56-32.636,4.156c-2.736,0.86-5.316,1.676-6.592,1.812
			l-1.964,0.18c-6.588,0.572-18.856,1.628-20.564,12.42c-0.696,4.412,0.8,8.748,4.1,11.9c1.252,1.2,2.692,2.148,4.212,2.832
			c-0.368,0.344-0.708,0.716-1.016,1.112c-1.692,2.196-2.264,4.952-1.576,7.564c0.264,1.028,0.736,2.088,1.236,3.204
			c0.092,0.208,0.208,0.46,0.324,0.728c-5.9-0.32-12.02,2.528-17.028,4.848c-0.524,0.244-1.096,0.508-1.68,0.768
			c0.92-1.308,1.652-2.96,1.668-5.04c0.032-3.824-2.372-7.844-7.552-12.656c-3.484-3.236-3.384-3.384-2.584-4.54
			c2.904-4.208,4.128-7.952,0.676-12.54C272.88,71.368,260.46,70.32,255.4,72.7c-3.36,1.58-4.936,4.704-4.116,8.156
			c0.112,0.476,0.256,0.944,0.42,1.4c-0.968-0.236-2.06-0.312-3.276-0.1c-8.128,1.428-13.82,5.792-15.22,11.672
			c-0.924,3.88,0.316,7.756,3.152,9.884c3.944,2.952,7.86,2.864,11.364,1.544c-1.124,1.712-1.728,3.64-1.312,5.6
			c0.264,1.244,0.836,2.288,1.72,3.136c-0.904,0.416-1.812,1.096-2.7,2.156c-4.924,5.868,1.436,11.612,4.852,14.704
			c1.108,0.992,2.876,2.596,3.452,3.48c-0.644,2.124-1.608,5.192-3.072,5.864c-0.82,0.38-2.276,0.152-4.1-0.644
			c-2.128-0.932-4.008-2.12-5.824-3.268c-5.636-3.564-12.024-7.604-21.492,0.668c-8.148,7.124-9.372,18.192-9.38,24.156
			c-0.004,6.672,1.572,14.792,5.1,17.892l0.94,0.824c0.704,0.612,1.516,1.324,2.076,1.872c-0.956,0.716-2.872,1.856-4.344,2.732
			c-4.908,2.928-11.624,6.94-15.472,12.192c-2.52,3.44-3.292,7.056-3.972,10.244c-0.996,4.668-1.652,7.752-7.196,10.104
			c-10.708,4.54-28.624,12.144-40.624,32.492c-6.292,10.668-8.736,30.956-1.928,46.424c4.656,10.588,12.904,17.412,23.852,19.74
			c7.38,1.564,13.748,2.468,19.364,3.268c17.128,2.436,21.64,3.472,22.34,13.196c1.22,16.908,12.504,19.176,20.748,20.832
			c2.056,0.416,4,0.804,5.74,1.364c1.44,0.468,0.516,6.58,0.02,9.86c-1.06,7.016-2.38,15.744,5.14,18.384
			c3.128,1.1,5.064,3.632,5.912,7.724c2.276,11.032-4.144,26.68-6.224,28.612c-11.048,8.332-12.632,22.428-9.428,31.996
			c3.068,9.156,10.204,14.62,19.096,14.62c34.88,0,64.704-19.984,91.008-37.62c17.372-11.644,32.372-21.696,44.628-22.864
			c27.5-2.616,37.084-13.16,36.932-21.396c-0.088-4.836-3.58-8.544-8.288-8.824c-10.012-0.592-17.656-3.448-20.956-7.836
			c-1.9-2.528-2.408-5.596-1.552-9.396c10.804-48.08-0.78-73.904-5.728-84.94c-0.296-0.656-0.604-1.34-0.884-1.984
			c15.828,2.308,15.996,22.4,14.468,50.272c-0.772,14.092-1.44,26.264,1.896,33.988c1.928,4.468,6.632,9.624,18.172,8.876
			c19.836-1.292,53.396-21.304,57-33.976c2.016-7.108-1.696-18.072-7.792-23c-3.592-2.904-7.744-3.464-11.376-1.536
			c-2,1.064-3.564,1.464-4.408,1.12c-0.924-0.372-2.424-2.036-4.304-7.816c-2.444-7.524-1.504-9.832-1.592-9.928
			c0.052-0.008,0.184-0.02,0.404-0.004c0.464,0.668,1.104,2.256,1.552,3.344c1.352,3.348,3.036,7.516,6.988,8.896
			c2.312,0.812,4.84,0.46,7.5-1.044c1.172-0.66,2.188-0.8,3.324-0.448c2.516,0.776,5.404,3.948,7.536,8.284
			c2.328,4.72,5.088,8.044,7.78,10.404C455.248,418.332,363.108,492.128,254,492.128z"/>
	</g>
</g>
<g>
	<g>
		<path fill="white" d="M279.372,46.444c-4.744-1.352-10.616-1.844-16.292-2.32c-4.764-0.396-12.732-1.064-14.116-2.372
			c-0.708-0.928-1.22-1.988-1.764-3.116c-1.7-3.528-4.028-8.352-13.168-8.888c-3.756-0.216-5.9-0.6-7.62-0.912
			c-2.636-0.472-4.916-0.772-8.712-0.152c-5.828,0.948-9.604,4.468-11.86,6.572c-0.5,0.472-0.928,0.888-1.316,1.168
			c-1.992,1.456-2.004,3.372-1.916,4.128c0,0.028,0.004,0.056,0.008,0.084c-3.428,1.12-6.62,1.884-9.46,2.564
			c-4.888,1.168-8.752,2.088-11.672,4.224c-0.556,0.404-1.256,0.888-2.032,1.428c-6.96,4.844-11.548,8.32-11.828,12.292
			c-0.112,1.596,0.472,3.084,1.648,4.176c2.216,2.064,5.516,3.204,9.292,3.204c2.884,0,5.92-0.684,8.784-1.976
			c5.028-2.276,21.22-5.716,33.316-7.084c1.932-0.22,5.068-0.456,8.868-0.708c-1.084,1.248-1.876,2.788-1.808,4.596
			c0.084,2.304,1.492,5.328,7.704,6.648c5.048,1.08,10.232,1.696,14.228,1.696c6.72,0,10.196-1.976,10.34-5.884
			c0.06-1.704-0.692-3.38-2.228-4.972c-1.164-1.204-2.9-2.44-5.012-3.504c29.6-1.832,29.668-2.4,30.096-6.264
			C283.028,49.448,282.224,47.26,279.372,46.444z"/>
	</g>
</g>
<g>
</g>
<g>
</g>
<g>
</g>
<g>
</g>
<g>
</g>
<g>
</g>
<g>
</g>
<g>
</g>
<g>
</g>
<g>
</g>
<g>
</g>
<g>
</g>
<g>
</g>
<g>
</g>
<g>
</g>
</svg>
